<svg xmlns="http://www.w3.org/2000/svg" viewBox="0 0 603 182" fill="currentColor">
   <path d="M374.1 141.6c-31.4 23.2-77 35.5-116.2 35.5-55 0-104.5-20.3-142-54.2-2.9-2.6-.3-6.2 3.2-4.2 40.2 23.4 89.9 37.5 141.3 37.5 34.6 0 72.7-7.2 107.7-22.1 5.3-2.3 9.7 3.5 4.6 7.5h1.4z"/>
   <path d="M387.8 125.9c-4-5.1-26.5-2.4-36.6-1.2-3.1.4-3.6-2.3-.8-4.2 17.9-12.6 47.3-9 50.7-4.8 3.4 4.3-.9 33.9-17.8 48.1-2.6 2.2-5.1 1-3.9-1.9 3.8-9.4 12.3-30.5 8.4-36z"/>
   <path d="M348.6 32.3V21.7c0-1.6 1.2-2.7 2.7-2.7h47.7c1.5 0 2.7 1.2 2.7 2.7v9.1c0 1.5-1.3 3.5-3.6 6.6l-24.7 35.3c9.2-.2 18.9 1.1 27.2 5.8 1.9 1.1 2.4 2.6 2.5 4.1v11.3c0 1.5-1.7 3.3-3.5 2.4-14.8-7.8-34.4-8.6-50.8.1-1.7.9-3.4-.9-3.4-2.4v-10.7c0-1.7 0-4.6 1.7-7.2l28.6-41h-24.9c-1.5 0-2.7-1.2-2.7-2.7l.5-.4z"/>
   <path d="M124.7 103.9h-14.4c-1.4-.1-2.4-1.2-2.5-2.5V21.9c0-1.5 1.2-2.7 2.7-2.7h13.4c1.4.1 2.5 1.2 2.6 2.5v10.4h.3c3.5-10 10.1-14.5 19-14.5 9 0 14.7 4.5 18.7 14.5 3.5-10 11.4-14.5 19.9-14.5 6 0 12.6 2.5 16.7 8.1 4.6 6.3 3.6 15.4 3.6 23.4v51.2c0 1.5-1.2 2.7-2.7 2.7h-14.4c-1.4-.1-2.5-1.2-2.6-2.6V56.3c0-3.1.3-10.9-.4-13.9-1.1-5-4.4-6.4-8.7-6.4-3.6 0-7.4 2.4-8.9 6.2-1.5 3.8-1.4 10.2-1.4 14.1v44.9c0 1.5-1.2 2.7-2.7 2.7h-14.4c-1.4-.1-2.5-1.2-2.6-2.6l-.1-44.9c0-9.4 1.5-23.3-9.1-23.3-10.7 0-10.3 12.2-10.3 23.3v44.9c0 1.5-1.2 2.7-2.7 2.7z"/>
   <path d="M433.1 17.4c21.3 0 32.9 18.3 32.9 41.6 0 22.5-12.8 40.3-32.9 40.3-20.9 0-32.4-18.3-32.4-41.1 0-23 11.6-40.8 32.4-40.8zm.1 15c-10.5 0-11.2 14.3-11.2 23.2 0 8.9-.1 28 11.1 28 11.1 0 11.6-15.4 11.6-24.8 0-6.2-.3-13.5-2.3-19.4-1.7-5.1-5.1-7-9.2-7zm58.2 71.5h-14.3c-1.4-.1-2.5-1.2-2.6-2.6V21.8c.1-1.4 1.3-2.5 2.7-2.5h13.3c1.2.1 2.3 1 2.5 2.2v12.3h.3c3.8-11 9.1-16.1 18.5-16.1 6.1 0 12.1 2.2 15.9 8.3 3.5 5.6 3.5 15 3.5 21.7v53.4c-.2 1.3-1.4 2.3-2.7 2.3h-14.4c-1.3-.1-2.4-1.1-2.5-2.4V51.9c0-9.1 1-22.5-10.1-22.5-3.9 0-7.5 2.6-9.3 6.6-2.3 5-2.6 10-2.6 15.5v49.5c-.2 1.5-1.4 2.6-2.9 2.6l.7-.2z"/>
   <path d="M272.7 60.6c0 7.5.2 13.7-3.6 20.4-3.1 5.4-8 8.7-13.4 8.7-7.4 0-11.8-5.7-11.8-14.1 0-16.5 14.8-19.5 28.8-19.5v4.5zm14.6 35.3c-1 .9-2.4 1-3.5.4-4.9-4.1-5.8-6-8.5-9.9-8.1 8.3-13.9 10.8-24.4 10.8-12.5 0-22.2-7.7-22.2-23.1 0-12 6.5-20.2 15.8-24.2 8.1-3.6 19.3-4.2 27.9-5.2v-1.9c0-3.5.3-7.7-1.8-10.8-1.8-2.8-5.3-3.9-8.4-3.9-5.7 0-10.8 2.9-12 9-.2 1.3-1.2 2.6-2.5 2.7l-13.9-1.5c-1.2-.3-2.5-1.3-2.2-3.2 3.3-17.4 19-22.6 33.1-22.6 7.2 0 16.6 1.9 22.3 7.3 7.2 6.7 6.5 15.6 6.5 25.3v22.9c0 6.9 2.9 9.9 5.6 13.6.9 1.3 1.1 2.9-.1 3.8-3.1 2.6-8.6 7.4-11.6 10.1l-.1-.4z"/>
   <path d="M48.2 60.6c0 7.5.2 13.7-3.6 20.4-3.1 5.4-8 8.7-13.4 8.7-7.4 0-11.8-5.7-11.8-14.1 0-16.5 14.8-19.5 28.8-19.5v4.5zm14.5 35.3c-1 .9-2.4 1-3.5.4-4.9-4.1-5.8-6-8.5-9.9-8.1 8.3-13.9 10.8-24.4 10.8C13.8 97.2 4.1 89.5 4.1 74.1c0-12 6.5-20.2 15.8-24.2 8.1-3.6 19.3-4.2 27.9-5.2v-1.9c0-3.5.3-7.7-1.8-10.8-1.8-2.8-5.3-3.9-8.4-3.9-5.7 0-10.8 2.9-12 9-.2 1.3-1.2 2.6-2.5 2.7L9.2 38.4c-1.2-.3-2.5-1.3-2.2-3.2C10.3 17.8 26 12.6 40.1 12.6c7.2 0 16.6 1.9 22.3 7.3 7.2 6.7 6.5 15.6 6.5 25.3v22.9c0 6.9 2.9 9.9 5.6 13.6.9 1.3 1.1 2.9-.1 3.8-3.1 2.6-8.6 7.4-11.6 10.1l-.1-.4z"/>
</svg>

