<svg xmlns="http://www.w3.org/2000/svg" xmlns:xlink="http://www.w3.org/1999/xlink" viewBox="0 0 652 652"><path fill="#555" d="M66.5 442c0 26.1 16.3 43.3 42.4 43.3 26.1 0 42.4-17.1 42.4-43.3 0-26.1-16.3-44.9-42.4-44.9-26.1.1-42.4 18.8-42.4 44.9m109.3 63.4c0 38.9-28.3 66.4-70.4 66.4-24.5 0-44.9-6.3-63.1-23.1L58.9 528c12.8 13.6 27.2 20.9 46 20.9 36.4 0 46.5-22.8 46.5-44.6v-19h-.8c-9.3 15.5-26.9 22.8-44.6 22.8-37.8 0-65.8-28.5-65.6-66.1 0-38.1 25.6-67.7 65.6-67.7 17.4 0 35.3 7.9 44.9 21.8h.6v-18.5H176v127.8zm164.8 1.1h-24.5v-19.9h-.6c-6.3 13.6-22.6 23.1-42.4 23.1-25 0-46.8-15-46.8-49.2v-82.9h24.5v76.2c0 24.2 13.9 33.2 29.4 33.2 20.4 0 35.9-13.1 35.9-43v-66.4h24.5v128.9zm119.1-96.6c-5.7-7.1-14.1-12.8-26.4-12.8-11.4 0-21.5 5.2-21.5 14.4 0 15.5 22 17.7 32.9 20.1 21.2 5.2 37.5 13.3 37.5 37.5 0 29.1-26.7 40.5-52.2 40.5-21.2 0-37-5.4-49.8-22.8l18.5-15.2c7.9 7.9 17.1 15.2 31.3 15.2 12.5 0 26.1-5.2 26.1-16.3 0-14.7-20.4-17.4-31-19.9-20.9-5.2-39.4-12-39.4-36.7 0-26.9 24.7-39.7 49-39.7 17.1 0 34.8 6 44.1 21.2l-19.1 14.5zm134.9-11.1h-35.1v58.5c0 14.4 0 29.7 18.5 29.7 5.7 0 12.5-.8 17.4-3.8v22.3c-5.7 3.3-17.1 4.4-22 4.4-37.8 0-38.4-23.1-38.4-43.8v-67.2h-28.3v-21.2H535v-36.2h24.5v36.2h35.1v21.1z"/><defs><path id="a" d="M375.3 241c-.9.5-1.8-.8-.9-1.4 41.5-30.3 77.6-64.9 108.1-96.3 7-7.2 6.8-18.8-.5-25.8l-7-6.7c-50.6 52.5-118.8 119.5-203.5 162.3-.9.5-1.7-.9-.9-1.5 38.1-25.8 76.1-59.3 109.7-92.1 7.3-7.1 7.4-18.8.2-26l-6.8-6.9c-57.3 56.6-119.7 114-182.5 143.1-.9.4-1.6-.9-.8-1.5 37.5-24 77.7-61.1 98.1-80.5 7.3-7 7.6-18.6.6-25.9l-5.3-5.5S195.2 266.6 144.2 290c-49.7 22.8-84 22-102.2 18.5-1.7-.3-2.4 2.1-.8 2.7 20.2 8 59.4 18.9 115.8 17.2 160.4-4.8 321-102.4 437.7-223.8 7.4-7.6 6.6-19.9-1.6-26.7l-7.2-6c-1.1 1.4-85.8 98.6-210.6 169.1"/></defs><clipPath id="c"><use xlink:href="#a" overflow="visible"/></clipPath><linearGradient id="b" x1="19.614" x2="26.669" y1="721.262" y2="721.262" gradientTransform="matrix(80.337 0 0 -80.337 -1537.549 58144.902)" gradientUnits="userSpaceOnUse"><stop offset="0" stop-color="#555"/><stop offset=".065" stop-color="#555"/><stop offset=".52" stop-color="#555"/><stop offset=".842" stop-color="#555"/><stop offset="1" stop-color="#555"/></linearGradient><path fill="url(#b)" d="M39.7 71.8h562.6V330H39.7z" clip-path="url(#c)"/></svg>