<svg xmlns="http://www.w3.org/2000/svg" viewBox="0 0 138 60">
  <path d="M65.6916 12.8189C65.6916 12.0435 66.3233 11.4154 67.1032 11.4154H69.9407V26.1989C69.9407 30.6461 68.792 34.1161 66.5262 36.516C64.3769 38.793 61.2359 39.9947 57.442 39.9947C53.6481 39.9947 50.5089 38.7913 48.3578 36.516C46.0921 34.1161 44.9433 30.6443 44.9433 26.1989V11.4154H47.7808C48.5607 11.4154 49.1925 12.0435 49.1925 12.8189V26.1989C49.1925 29.3619 49.9424 31.8197 51.4212 33.5003C52.8434 35.116 54.8692 35.937 57.442 35.937C60.0148 35.937 62.0406 35.1178 63.4629 33.5003C64.9416 31.8197 65.6916 29.3619 65.6916 26.1989V12.8189ZM98.6756 15.2082C101.48 17.9958 103.043 21.7448 102.96 25.4937V39.5579H100.123C99.3427 39.5579 98.7109 38.9299 98.7109 38.1545V34.6722C96.5599 37.9019 92.5913 39.9965 88.4197 39.9965C88.328 39.9982 88.2344 40 88.1427 40C84.4899 40 80.8443 38.4562 78.1109 35.7371C75.3069 32.9495 73.7452 29.2111 73.8264 25.4797C73.7452 21.7641 75.3069 18.0256 78.1109 15.2381C80.9131 12.4522 84.6699 10.9014 88.4215 10.9786C92.1536 10.8997 95.8928 12.4435 98.6756 15.2117V15.2082ZM88.4762 15.0346C85.6846 15.0346 83.0712 16.1135 81.116 18.0695C79.1555 20.0326 78.0738 22.6675 78.0738 25.4849C78.0738 31.2478 82.7394 35.9353 88.4762 35.9353C94.2129 35.9353 98.7674 31.3443 98.7674 25.4849C98.7674 19.6256 94.2465 15.0328 88.4762 15.0328V15.0346ZM126.886 2.74745H124.051V11.4154V15.4749V26.2551C124.051 34.1038 127.772 38.8983 134.536 39.7246C134.751 39.7509 134.97 39.7614 135.187 39.7614H137.372V37.1054C137.372 36.33 136.74 35.702 135.96 35.702C135.722 35.702 135.484 35.6862 135.249 35.6546L134.947 35.6143C130.599 34.9652 128.3 31.6916 128.3 26.1463V15.4749H133.841C134.621 15.4749 135.252 14.8469 135.252 14.0715V11.4154H128.3V4.15089C128.3 3.37549 127.668 2.74745 126.888 2.74745H126.886ZM110.742 2.74745H107.906V11.4154V15.4749V26.2551C107.906 34.1038 111.628 38.8983 118.392 39.7246C118.607 39.7509 118.826 39.7614 119.043 39.7614H121.227V37.1054C121.227 36.33 120.596 35.702 119.816 35.702C119.577 35.702 119.339 35.6862 119.105 35.6546L118.803 35.6143C114.455 34.9652 112.155 31.6916 112.155 26.1463V15.4749H117.696C118.476 15.4749 119.108 14.8469 119.108 14.0715V11.4154H112.155V4.15089C112.155 3.37549 111.524 2.74745 110.744 2.74745H110.742ZM29.9741 35.5879H19.9864C19.9864 35.5879 19.9794 35.5879 19.9758 35.5879C19.023 35.6055 18.0842 35.53 17.1684 35.3686C14.0644 34.8248 11.2093 33.2916 8.86587 30.9619C5.81133 27.9269 4.17377 24.1903 4.24965 19.9922C4.17201 15.8082 5.81133 11.8312 8.86587 8.79627C11.8339 5.84554 15.612 4.16843 19.6988 4.16843C19.7906 4.16843 19.8823 4.16843 19.9741 4.17019H19.9811H19.9882C24.1827 4.093 28.0736 5.77362 31.0999 8.78224C34.1492 11.8137 35.785 15.7942 35.7073 20.0045C35.785 24.2025 34.1492 27.9427 31.0999 30.9741C30.4135 31.6566 29.683 32.2688 28.9153 32.8091H29.9724C31.7352 32.8091 33.2475 33.0828 34.5233 33.4898C38.1337 29.7163 40.0589 25.0832 39.9547 20.0045C40.0624 14.7276 37.9925 9.70325 34.1227 5.85782C30.2759 2.03345 25.2767 -0.101533 19.9847 0.00372506C14.6661 -0.101533 9.67053 2.02819 5.82897 5.8473C1.96448 9.68921 -0.103641 14.717 0.00399977 19.9922C-0.103641 25.2814 1.96448 30.0707 5.82721 33.9126C8.72293 36.7931 12.2786 38.7053 16.1255 39.4299V39.4351C16.2155 39.4527 16.3037 39.4667 16.3937 39.4825C16.3972 39.4825 16.399 39.4825 16.4025 39.4825C17.4789 39.6684 18.5783 39.7632 19.6917 39.7579C19.787 39.7579 38.5536 39.7579 38.5536 39.7579C38.5536 39.7579 36.3126 35.5862 29.9759 35.5862L29.9741 35.5879Z" fill="#555"/>
</svg>
