<svg xmlns="http://www.w3.org/2000/svg" viewBox="0 0 652 300"><defs><style>.st0,.st1,.st2,.st3{fill:#555}</style></defs><path d="M246.583 21.596h378v63h-378z" class="st0"/><path d="M24.583 21.596h48v63h-48z" class="st1"/><path d="M99.583 21.596h120v63h-120z" class="st2"/><path d="M350.483 178.796c0-14.8-5-26.8-14.6-34.4-9.8-7.8-21.2-9.7-38.1-9.7h-51.3v136.8h27.8v-112.1h24.5c6.9 0 12 .9 15.3 2.9 4.9 2.9 7.8 8.2 7.8 16.6 0 14.3-8.8 19.3-20.3 19.3h-18.5v24.8h11.1l29 48.7h32.2l-32.2-53.3c18.7-5.6 27.3-21.2 27.3-39.6m84.4 15.3c-19.7-6.8-42-7.6-42-22.6 0-9.6 8.8-14.1 21.3-14.1 12.3 0 23.2 1.1 41.7 6v-24.8c-15.9-4.5-27.4-6.1-42.4-6.1-27.1 0-50 10.8-50 38.3 0 21.7 10.8 32.7 32.2 40 19 6.5 40.5 7.8 40.5 22.5 0 11-10.7 15.6-26.1 15.6-15 0-24.4-1.2-43.5-6.3v24.9c16 4.8 29.4 6.1 45 6.1 34 0 53.9-14.8 53.9-42.3-.1-21.8-14.3-31.6-30.6-37.2m153.3-59.4-48.8 136.9h26.5l31-87h.4v87h27.3v-136.9zm-39.3 85.2-31.9-85.2h-36.9v136.8h27v-86.9h.4l27.6 73.8z" class="st3"/><path d="M246.583 21.596h378v63h-378z" class="st0"/><path d="M24.583 21.596h48v63h-48z" class="st1"/><path d="M99.583 21.596h120v63h-120z" class="st2"/><path d="M350.483 178.796c0-14.8-5-26.8-14.6-34.4-9.8-7.8-21.2-9.7-38.1-9.7h-51.3v136.8h27.8v-112.1h24.5c6.9 0 12 .9 15.3 2.9 4.9 2.9 7.8 8.2 7.8 16.6 0 14.3-8.8 19.3-20.3 19.3h-18.5v24.8h11.1l29 48.7h32.2l-32.2-53.3c18.7-5.6 27.3-21.2 27.3-39.6m84.4 15.3c-19.7-6.8-42-7.6-42-22.6 0-9.6 8.8-14.1 21.3-14.1 12.3 0 23.2 1.1 41.7 6v-24.8c-15.9-4.5-27.4-6.1-42.4-6.1-27.1 0-50 10.8-50 38.3 0 21.7 10.8 32.7 32.2 40 19 6.5 40.5 7.8 40.5 22.5 0 11-10.7 15.6-26.1 15.6-15 0-24.4-1.2-43.5-6.3v24.9c16 4.8 29.4 6.1 45 6.1 34 0 53.9-14.8 53.9-42.3-.1-21.8-14.3-31.6-30.6-37.2m153.3-59.4-48.8 136.9h26.5l31-87h.4v87h27.3v-136.9zm-39.3 85.2-31.9-85.2h-36.9v136.8h27v-86.9h.4l27.6 73.8z" class="st3"/></svg>