<svg xmlns="http://www.w3.org/2000/svg" width="295.576" height="155.282"><path fill="#555" d="M79.783 25.881H0v18.592h24.936v84.93h23.981v-84.93h25.535zm50.905 103.849c28.686 0 36.698-15.02 36.698-31.269v-72.58h-22.568v67.404c0 11.43-4.208 17.276-14.13 17.276-9.92 0-14.128-5.846-14.128-17.276V25.881H93.99v72.58c0 16.248 8.013 31.268 36.698 31.268M277.23 86.7h-20.458v-.263c0-4.411 1.16-14.647 10.236-14.647 2.391 0 10.223-.11 10.223 13.43v1.48zm18.346 7.979c0-21.515-8.024-35.836-28.568-35.836-19.357 0-29.648 14.93-29.648 35.836 0 12.843 5.376 35.06 33.117 35.06 11.252 0 20.095-5.944 24.315-9.375l-6.883-10.62s-6.863 6.791-17.362 6.791c-9.847 0-14.04-7.136-14.04-17.004h39.069v-4.852zm-99.332 60.603L240.772 0h-16.564l-44.526 155.282z"/></svg>