<svg xmlns="http://www.w3.org/2000/svg" viewBox="0 0 337.5 93.5">
    <defs>
        <style>.cls-1{fill:#555}</style>
    </defs>
    <path fill="#555" d="M14.17 14.17h56.69v56.69H14.17z"/>
    <path d="m38.24 30.32 4.28-4.28 4.28 4.28 2.37-2.37-4.28-4.28 4.28-4.28-2.37-2.37-4.28 4.28-4.28-4.28-2.37 2.37 4.28 4.28-4.28 4.28 2.37 2.37zm0 15.75 4.28-4.28 4.28 4.28 2.37-2.37-4.28-4.28 4.28-4.28-2.37-2.37-4.28 4.28-4.28-4.28-2.37 2.37 4.28 4.28-4.28 4.28 2.37 2.37zm0 21.93 4.28-4.28L46.8 68l2.37-2.37-4.28-4.28 4.28-4.28-2.37-2.37-4.28 4.28-4.28-4.28-2.37 2.37 4.28 4.28-4.28 4.28L38.24 68z" class="cls-1"/>
    <path d="m55.41 30.25-4.93.23a63.39 63.39 0 0 1 .41 10.46c-.29 5-1.08 5.89-1.08 5.89-1.11 2.09-4.56 2.6-6.32 2.74a14.25 14.25 0 0 1-2.56 0s-5.08-.19-6.22-2.56a13.77 13.77 0 0 1-.79-4s0-12.4-.07-12.68a15.43 15.43 0 0 0-2.19.1c-.94 0-2.32-.07-2.32-.07l.41 9.12-.06 5.38s0 2.89.74 4.05a7.68 7.68 0 0 0 3.44 3 15.78 15.78 0 0 0 3.43 1 15.51 15.51 0 0 0 6.79-.36 10 10 0 0 0 4.42-2.18l2.32-2.19v5.16L55.7 52a78.45 78.45 0 0 1-.63-11.06c0-7 .34-10.69.34-10.69" class="cls-1"/>
    <path fill="#555" d="M89.26 19.46c0-3.09-1.88-3.09-4-3.09l-.26-.16v-.66c0-.43.27-.47.7-.47 1 0 3.52.2 5.36.2s4-.2 5.9-.2l.12.12v1l-.19.16h-.47c-2.54 0-3.68.27-3.68 3.21v11.35c0 5.63 1.1 10 7.82 10 7 0 9.27-3.37 9.27-10V20.83c0-4.46 0-4.15-3.44-4.46l-.16-.31v-.74l.12-.24c.7 0 1.49.2 4.42.2 1.64 0 3.71-.2 5-.2l.15.24v.82l-.24.23c-2.84 0-3.87.16-3.87 2.11v14c0 7.16-4.18 10.8-11.29 10.8-5.67 0-11.27-2-11.27-8.53z"/>
    <path fill="#555" d="M118.16 25.56a1.79 1.79 0 0 0-.14-1A4.4 4.4 0 0 0 116 23l-1.55-.09c-.12 0-.15-.29-.15-.52s0-.39.15-.39c.91 0 1.61-.06 2.34-.06 1.35 0 3.49.12 4 .18l8.88 10.72a67.68 67.68 0 0 0 4.78 5.28h.11V25.24c0-1.94-.7-2.23-1.64-2.26l-1.26-.06c-.11 0-.17-.29-.17-.49s.08-.48.26-.48c.64 0 2.17.15 3.6.15s2.73-.15 3.55-.15c.15 0 .18.12.18.24v.55c0 .15-.06.18-.27.18H138c-2 0-2 1-2 3.52v17h-.7l-15.82-18.11v13.44c0 2.52.36 2.81 2.87 2.91.12 0 .21.26.21.49s0 .47-.12.47c-.55 0-2.43-.15-3.66-.15-1.44 0-2.08.15-3.42.15-.18 0-.21-.2-.21-.58s0-.38.38-.38c1.23 0 2.63-.3 2.63-1.79zm28.58 11.66c0 4.28.09 4.3 3 4.46l.15.2v.56c0 .17-.44.2-.7.2-.41 0-2.38-.15-3.58-.15-1.4 0-2.84.15-4.36.15-.12-.06-.15-.23-.15-.53s.09-.43.94-.43c2 0 2.11-.45 2.11-2.67V25c0-1.67-.5-2.08-3-2.08l-.09-.14-.06-.48c0-.32.3-.35.47-.35.79 0 1.73.15 3.72.15 1.47 0 3.23-.15 4.4-.15l.14.21v.53l-.11.17-.79.06c-1.18.09-2.09.21-2.09 1.55zm7.04-13.31c-.32-.78-1.49-1-2.32-1l-.17-.14V22l.32-.06c1.23 0 3 .15 3.67.15 1.34 0 2.66-.15 4-.15l.09.09-.09.82-1.38.12c-.47 0-1 .2-1 .64a2.58 2.58 0 0 0 .26.88l3.37 8.8 1.91 4.36c.2.44.23.53.32.53s.14-.13.26-.47l4.19-11.11a10.83 10.83 0 0 0 .79-2.7c0-.49-.18-.75-1-.84l-1.53-.15-.18-.09v-.9c1.15 0 2.29.17 3.44.17.9 0 2.84-.17 3-.17l.27.08v.68l-.27.2-.91.06c-.58 0-.82.32-1.23 1.35-2.78 6.71-3.45 8.82-5.68 14.47l-1.49 3.81c-.15.41-.21.44-.41.44s-.33-.09-.38-.21zm22.92 1.03c0-1.9-1.43-2.11-3.13-2.11-.12 0-.12-.14-.12-.26v-.33c0-.26.5-.29 1.52-.29 1.18 0 2.49.15 3.73.15s2.3-.1 3.51-.1h6.18c.24 0 .27.27.27.59v3.57a.21.21 0 0 1-.21.24c-.23 0-.7 0-.73-.32l-.09-.91c-.18-1.87-1.47-2.2-3.11-2.2h-3c-1.65 0-2.17.35-2.17 2.58v5.3c0 .09.18.24.23.24l3.46-.12c1.76-.06 2.26-.62 2.7-2.17.06-.17.14-.23.46-.23s.36 0 .36.17c0 .62-.18 2-.18 2.94 0 1.57.18 2.43.18 2.92 0 .18-.3.36-.47.36a.46.46 0 0 1-.5-.39 13.89 13.89 0 0 0-.29-1.75c-.15-.44-.5-.65-1.38-.67l-4.16-.1c-.41 0-.41.15-.41.35v7c0 2.11 1.55 2.17 3.57 2.17h1.59a7 7 0 0 0 3.37-.47 8.84 8.84 0 0 0 1.87-2.9c.38 0 .88.09.88.29a1.57 1.57 0 0 1-.15.47l-.82 3c-.23.79-.38.79-.76.79-3.16 0-6.27-.15-10.52-.15-1 0-3.43.15-4.92.15-.09 0-.18-.29-.18-.47s.06-.49.18-.49c2.55-.12 3.25-.39 3.25-3.08zm19.3.18c0-1.47-.06-2.2-1.9-2.2h-1.2c-.18 0-.21-.32-.21-.56s.09-.41.21-.41c1.69 0 3.43.09 5.12.09 1.35 0 2.67-.09 4-.09 3 0 5.92 2 5.92 5.07 0 2.67-2.44 4.46-4.72 4.81v.06c1.14.26 2.34 2.4 2.64 2.87l3.22 4.92a3.52 3.52 0 0 0 3.45 1.94l.18.17v.56a.28.28 0 0 1-.32.29c-.61 0-1.52-.09-2-.09-.71 0-1.41.09-2.11.09s-2-2-3.73-5c-1.9-3.37-3-5.22-4.94-5.22a7.2 7.2 0 0 0-1 .06v7.19c0 1 0 2 1.46 2 1.12 0 1.61 0 1.61.23 0 .55-.08.73-.52.73-1.52 0-2.79-.15-4.05-.15-.49 0-3.75.15-4.16.15-.17 0-.23-.38-.23-.62s.12-.32.71-.34c2-.1 2.54-.39 2.54-2.41zm2.64 6.24c.38 0 .73.06 1.11.06 2.35 0 5.28-.82 5.28-4.28a4.06 4.06 0 0 0-4.34-4.25c-2 0-2.05.47-2.05 1.35zm18.75.64c-2.11-1.26-3-2.43-3-4.71 0-3.66 3-5.72 6.94-5.72a10.82 10.82 0 0 1 3.7.82l.2 3.67v.14c0 .15-.29.21-.7.21s-.44-.18-.47-.47a3.46 3.46 0 0 0-3.69-3.22 3.35 3.35 0 0 0-3.5 3.28c0 2.11 1.28 2.93 4.21 4.48s5.42 2.87 5.42 6.54c0 4-3.6 6.06-7.26 6.06a13.53 13.53 0 0 1-4.31-.85c-.23-.12-.32-.5-.41-1.14l-.35-2.76c0-.17.59-.17.76-.17s.17.06.23.26a4.48 4.48 0 0 0 4.55 3.52 4.08 4.08 0 0 0 4-3.78c0-1.91-1.09-3.05-2.61-4zm17.3 5.22c0 4.28.08 4.3 3 4.46l.14.2v.56c0 .17-.44.2-.7.2-.41 0-2.37-.15-3.58-.15-1.41 0-2.84.15-4.36.15-.12-.06-.15-.23-.15-.53s.09-.43.94-.43c2 0 2.11-.45 2.11-2.67V25c0-1.67-.5-2.08-3-2.08l-.09-.14-.06-.48c0-.32.3-.35.47-.35.79 0 1.73.15 3.72.15 1.47 0 3.23-.15 4.4-.15l.15.21v.53l-.12.17-.8.06c-1.17.09-2.07.21-2.07 1.55zm15.56 2.29c0 2.16 1.46 2.16 3.28 2.16l.18.15v.47c0 .35-.15.35-.62.35s-2-.15-4.07-.15c-1.61 0-4.13.15-4.84.15a1.83 1.83 0 0 1-.12-.53.47.47 0 0 1 .12-.32l.3-.12h.35c2.67 0 2.78-.9 2.78-3.34V24.45l-.08-1.35h-3.93c-2.23 0-2.58 1.4-3.14 3.28a.33.33 0 0 1-.35.26c-.41 0-.68-.12-.68-.29 0-.5.36-3.22.36-5.54 0-.12.41-.12.82-.12.93 1.31 1.23 1.31 2.49 1.31H254a3.5 3.5 0 0 0 3.37-1.52c.2 0 .88 0 .88.26a36.17 36.17 0 0 0-.65 4.75c0 .32-.09.94-.23.94s-.94-.15-.94-.3l-.12-1.46c-.11-1.49-.82-1.52-2-1.52h-4zm18.04-6.19a1.91 1.91 0 0 0-.35-1.15l-6.61-8.94c-.18-.26-.44-.41-1.12-.44l-1.12-.06-.18-.09v-.76l.18-.09h.35c.5 0 3.66.14 4.22.14.74 0 1.92-.14 2.89-.14.65 0 .94 0 .94.18v.35c0 .29-.09.44-.17.44l-1.71.06c-.42 0-.68.17-.68.5a2.07 2.07 0 0 0 .47.79l4.22 5.89a5.59 5.59 0 0 0 .79.89c.56-.54 3.16-4.11 4.43-6a3.87 3.87 0 0 0 .74-1.47c0-.41-.24-.59-1.1-.62l-1.48-.04a3.4 3.4 0 0 0 0-.56.44.44 0 0 1 .18-.41c1.15.11 2.56.14 3.83.14.86 0 2.16-.14 2.54-.14l.18.11v.69l-.12.11-1.09.06c-.95.06-2.13 2.06-2.69 2.83l-4.83 6.7v6.93a5.56 5.56 0 0 0 .09 1.33c.23.71 1 1.1 2.09 1.1h.8l.26.12v.82h-.59c-1.3 0-2.56-.15-3.87-.15s-2.68.15-4 .15h-.42l-.24-.06v-.5c0-.18.06-.39.3-.41l1.38-.15c.86-.09 1.54-.39 1.54-1.86zm-124.96 40.8-1.72 5.56a9.08 9.08 0 0 0-.47 2.55c0 1.29 1.84 1.57 2.9 1.57.35 0 .43.23.43.74s0 .55-.32.55c-.89 0-3.76-.2-4.82-.2s-2.7.2-3.88.2c-.78 0-.78-.12-.78-.63V84c0-.19.35-.27 1.29-.35 2-.2 2.32-.59 3.07-2.75l7.75-22.57a8.68 8.68 0 0 1 2.58-1.88l9.85 24.81c.66 1.65 1.37 2.47 3.64 2.47.43 0 .51.47.51.9s-.27.43-.74.43c-.64 0-3.14-.2-4.67-.2s-3.14.08-4.7.2c-.59 0-.63-.12-.63-.67s.23-.62.78-.62 2.51-.12 2.51-1.06a7.66 7.66 0 0 0-.7-2.31l-2.51-6.31zm8.67-1.53-4.35-11.21h-.08l-3.72 11.21zM86.2 75a11.35 11.35 0 0 1 11.3-11.17c6.15 0 11.62 4.22 11.62 10.31 0 5.89-5.68 11.18-11.51 11.18-6.11 0-11.41-4-11.41-10.36m19.8-.23c0-4.93-3.37-9.93-8.64-9.93s-8 4.24-8 9.19 3 10.19 8.49 10.19 8.15-4.42 8.15-9.45m6.71-7.21c0-1.78-.29-2.17-2-2.17h-.5c-.52 0-.76 0-.76-.23s0-.74.33-.74h12c1 0 2-.14 3-.14.17 0 .41 0 .41.27l.11 3.3v.62c0 .21-.24.17-.54.17h-.43a10.21 10.21 0 0 0-.21-1l-.26-.91c-.32-1.14-1.17-1.32-2.08-1.32h-4.1c-2.17 0-2.38.67-2.38 2.82v5.15h4.34c2.52 0 3.13-.7 3.13-2.31a4.2 4.2 0 0 1 .8-.15c.11 0 .17.06.17.2a26.4 26.4 0 0 0-.11 2.81c0 .86.11 2.38.11 3 0 .26-.2.38-.53.38s-.32-.26-.44-.73c-.2-1.2-.78-2.26-3.27-2.26h-4.2V82c0 1.14.16 1.75 1.65 1.87l1.52.12c.15 0 .2.18.2.38s0 .58-.32.58c-2.19 0-3.13-.14-4.51-.14-1.2 0-3.36.14-4.15.14-.24 0-.24-.29-.24-.52s0-.44.15-.44l1.29-.09c1.55-.12 1.78-.47 1.78-2.19zm71.8-3.2c.91 0 1.85.08 2.79.08.74 0 1.5-.08 2.24-.08.43 0 .52.11.52.2V65c0 .21-.09.36-.21.36s-.52-.07-.88-.07c-1.7 0-1.7.86-1.7 2.77 0 1.68.32 12.67.32 14.29a1.61 1.61 0 0 0 1.68 1.76c1.18 0 1.32.06 1.32.32s-.17.65-.26.65c-1.56 0-2.79-.15-4-.15s-2.5.15-3.76.15c-.21 0-.24-.12-.24-.29v-.3c0-.29.27-.38 1.62-.38.59 0 1.12-.7 1.12-1.73 0-3.18-.12-10-.24-15.06h-.09c-1.64 3.38-3.79 8.29-4.79 10.9l-2.77 7.26a.25.25 0 0 1-.26.18c-.14 0-.26-.15-.35-.56a13 13 0 0 0-.74-2.15l-5.58-13.55c-.21-.5-.38-.85-.5-.85s-.12.59-.12.91c0 2.32-.35 11.2-.35 12.64 0 1.26 0 2 2.59 2 .17 0 .2.15.2.5 0 .12 0 .47-.14.47-.42 0-1.86-.15-3.45-.15s-3.32.15-3.73.15c-.09 0-.18-.09-.18-.24v-.44c0-.26.24-.29.59-.29 2.41 0 2.77-.74 2.77-3.29 0-1.44.49-12.26.49-13.32 0-1.56-.76-2.21-3.4-2.21-.09 0-.15-.14-.15-.32v-.38a.24.24 0 0 1 .24-.26c1.11 0 2.17.14 3.35.14.73 0 1.5-.14 2.23-.14.21 0 .42.47.56.85l6.35 15.2h.14zm10.63 10.05c-2.12-1.27-3-2.44-3-4.73 0-3.68 3-5.73 7-5.73a10.43 10.43 0 0 1 3.71.82l.2 3.67v.15c0 .15-.29.2-.71.2s-.43-.17-.46-.46a3.48 3.48 0 0 0-3.71-3.24 3.37 3.37 0 0 0-3.55 3.3c0 2.11 1.29 2.93 4.23 4.49s5.44 2.88 5.44 6.56c0 4-3.62 6.08-7.29 6.08a13.54 13.54 0 0 1-4.32-.85c-.24-.12-.33-.5-.42-1.15l-.35-2.76c0-.18.59-.18.77-.18s.17.06.23.27a4.49 4.49 0 0 0 4.56 3.52 4.08 4.08 0 0 0 4-3.79c0-1.91-1.08-3.05-2.61-4zM216.55 82c0 2.18 1.47 2.18 3.29 2.18l.18.14v.47c0 .36-.15.36-.62.36s-2-.15-4.09-.15c-1.61 0-4.14.15-4.85.15a1.93 1.93 0 0 1-.11-.53.49.49 0 0 1 .11-.33l.3-.11h.35c2.68 0 2.8-.92 2.8-3.35V66.89l-.09-1.35h-3.94c-2.24 0-2.59 1.41-3.15 3.29a.35.35 0 0 1-.35.27c-.42 0-.67-.12-.67-.29 0-.51.34-3.24.34-5.56 0-.12.42-.12.83-.12.94 1.27 1.23 1.27 2.5 1.27h10.93a3.51 3.51 0 0 0 3.38-1.53c.21 0 .88 0 .88.26a36.85 36.85 0 0 0-.64 4.76c0 .32-.09.94-.24.94s-.94-.14-.94-.29l-.11-1.47c-.12-1.5-.83-1.53-2-1.53h-4.06zm12.34-14.69c0-1.9-1.44-2.11-3.15-2.11-.11 0-.11-.15-.11-.27v-.32c0-.26.5-.29 1.52-.29 1.18 0 2.5.14 3.74.14s2.35-.14 3.52-.14h6.21c.23 0 .26.26.26.58v3.59a.21.21 0 0 1-.21.24c-.23 0-.7 0-.73-.33l-.09-.91c-.18-1.88-1.47-2.21-3.11-2.21h-3c-1.65 0-2.18.36-2.18 2.59v5.32c0 .09.18.24.24.24l3.47-.12c1.76-.06 2.26-.61 2.7-2.18.06-.17.15-.23.48-.23s.34 0 .34.18c0 .62-.17 2-.17 2.94 0 1.58.17 2.44.17 2.94 0 .17-.29.35-.47.35a.46.46 0 0 1-.5-.39 15.18 15.18 0 0 0-.29-1.76c-.15-.44-.5-.64-1.38-.67L232 74.4c-.42 0-.42.14-.42.35v7c0 2.11 1.56 2.17 3.59 2.17h1.59a7 7 0 0 0 3.38-.47 8.55 8.55 0 0 0 1.86-2.91c.38 0 .88.09.88.3a2.58 2.58 0 0 1-.14.47l-.83 3c-.23.79-.38.79-.76.79-3.18 0-6.3-.15-10.55-.15-1 0-3.45.15-4.94.15-.09 0-.18-.29-.18-.47s.06-.5.18-.5c2.55-.12 3.26-.38 3.26-3.09zm18.45.18c0-1.47-.06-2.21-1.91-2.21h-1.21c-.18 0-.2-.32-.2-.55s.09-.41.2-.41c1.71 0 3.45.08 5.15.08 1.35 0 2.67-.08 4-.08 3 0 5.94 2 5.94 5.08 0 2.68-2.44 4.47-4.73 4.82v.06c1.15.26 2.36 2.41 2.65 2.88l3.23 4.94A3.5 3.5 0 0 0 264 84l.17.18v.56c0 .26-.2.29-.32.29-.62 0-1.53-.09-2-.09-.71 0-1.41.09-2.11.09s-2-2-3.74-5.06c-1.91-3.38-3-5.23-5-5.23a7.08 7.08 0 0 0-1 .06V82c0 1.06 0 2.06 1.47 2.06 1.11 0 1.61 0 1.61.23 0 .56-.08.74-.53.74-1.53 0-2.79-.15-4.06-.15-.49 0-3.75.15-4.17.15-.18 0-.23-.38-.23-.62s.11-.32.7-.35c2-.09 2.56-.38 2.56-2.41zm2.66 6.26c.38 0 .73.06 1.11.06 2.35 0 5.29-.82 5.29-4.29a4.06 4.06 0 0 0-4.4-4.26c-2 0-2 .47-2 1.35zm18.43-6.19c0-1.12-.23-2.27-1.33-2.27-.35 0-1.29.12-1.85.12-.12 0-.12-.44-.12-.59s0-.26.51-.38a62.61 62.61 0 0 1 9.19-.73 18.4 18.4 0 0 1 4.59.52 10.32 10.32 0 0 1 7.73 10.06c0 7.29-6.09 10.58-11.67 10.58-2.79 0-4.26-.12-5.73-.12s-2.94.09-4.41.12c-.12 0-.14-.26-.14-.47s.14-.5.26-.5a5.42 5.42 0 0 0 2.24-.53 1.83 1.83 0 0 0 .73-1.7zm2.65 13.11c0 3.23 3.32 3.23 4.61 3.23 4 0 8.32-3.32 8.32-9.46 0-5.24-2.82-7.82-4.86-9a12 12 0 0 0-4.52-.76c-2.41 0-3.55.17-3.55 2.06zm21.3-3.83L291.09 81a6.9 6.9 0 0 0-.36 1.91c0 1 1.39 1.18 2.18 1.18.26 0 .32.18.32.56s0 .41-.23.41c-.68 0-2.82-.15-3.62-.15s-2 .15-2.91.15c-.59 0-.59-.09-.59-.47v-.32c0-.15.27-.21 1-.27 1.53-.15 1.74-.44 2.29-2.06L295 65a6.61 6.61 0 0 1 1.94-1.41l7.38 18.61a2.47 2.47 0 0 0 2.68 1.87c.32 0 .38.35.38.68s-.2.32-.56.32-2.35-.15-3.5-.15-2.35.06-3.53.15c-.43 0-.46-.09-.46-.5s.17-.47.58-.47 1.89-.09 1.89-.8a6 6 0 0 0-.53-1.73l-1.88-4.73zm6.5-1.15-3.27-8.4h-.06l-2.78 8.4zm28.93-11.37c.92 0 1.86.08 2.8.08.73 0 1.5-.08 2.23-.08.44 0 .53.11.53.2V65c0 .21-.09.36-.2.36s-.54-.07-.89-.07c-1.7 0-1.7.86-1.7 2.77 0 1.68.32 12.67.32 14.29a1.61 1.61 0 0 0 1.68 1.76c1.17 0 1.32.06 1.32.32s-.18.65-.26.65c-1.56 0-2.8-.15-4-.15s-2.5.15-3.77.15c-.2 0-.23-.12-.23-.29v-.3c0-.29.26-.38 1.61-.38.59 0 1.12-.7 1.12-1.73 0-3.18-.11-10-.23-15.06h-.09c-1.65 3.38-3.79 8.29-4.79 10.9l-2.76 7.26a.28.28 0 0 1-.27.18c-.15 0-.26-.15-.35-.56a14 14 0 0 0-.74-2.15l-5.58-13.55c-.21-.5-.38-.85-.5-.85s-.12.59-.12.91c0 2.32-.36 11.2-.36 12.64 0 1.26 0 2 2.59 2 .18 0 .21.15.21.5 0 .12 0 .47-.15.47-.41 0-1.85-.15-3.44-.15s-3.32.15-3.73.15c-.09 0-.17-.09-.17-.24v-.44c0-.26.23-.29.58-.29 2.41 0 2.77-.74 2.77-3.29 0-1.44.5-12.26.5-13.32 0-1.56-.76-2.21-3.42-2.21-.08 0-.15-.14-.15-.32v-.38a.24.24 0 0 1 .24-.26c1.12 0 2.18.14 3.36.14.73 0 1.49-.14 2.23-.14.21 0 .41.47.56.85l6.35 15.2h.14z"/>
</svg>