<svg xmlns="http://www.w3.org/2000/svg" xmlns:xlink="http://www.w3.org/1999/xlink" width="613.572" height="162.98" viewBox="0 0 17.029 4.399"><g transform="translate(-15.678 -255.56) scale(.35278)"><use xlink:href="#555555" width="100%" height="100%" x="604.467" y="461.686"/><use xlink:href="#555555" width="100%" height="100%" x="63.516" y="72.44" fill="#555"/><use xlink:href="#555555" width="100%" height="100%" x="87.364" y="72.44" fill="#555"/><use xlink:href="#555555" width="100%" height="100%" x="85.54" y="83.441" fill="#555"/><use xlink:href="#555555" width="100%" height="100%" x="62.883" y="94.442" fill="#555"/><use xlink:href="#555555" width="100%" height="100%" x="63.002" y="105.443" fill="#555"/><use xlink:href="#555555" width="100%" height="100%" x="64.289" y="105.443" fill="#555"/><use xlink:href="#555555" width="100%" height="100%" x="65.02" y="116.444" fill="#555"/><use xlink:href="#555555" width="100%" height="100%" x="44.622" y="182.45" fill="#555"/><use xlink:href="#555555" width="100%" height="100%" x="246.703" y="61.897" fill="#555"/><use xlink:href="#555555" width="100%" height="100%" x="308.391" y="73.355" fill="#555"/><use xlink:href="#555555" width="100%" height="100%" x="231.275" y="101.769" fill="#555"/><use xlink:href="#555555" width="100%" height="100%" x="261.433" y="113.226" fill="#555"/><use xlink:href="#555555" width="100%" height="100%" x="222.435" y="141.641" fill="#555"/></g><path fill="#555" d="M4.266 2.2a2.067 2.067 0 1 1-4.134 0 2.067 2.067 0 0 1 4.134 0"/><path d="M2.216 3.352c-.568.002-1.159-.482-1.162-1.261-.001-.515.277-1.01.631-1.304.347-.287.821-.47 1.251-.472a.52.52 0 0 1 .149.016.859.859 0 0 0-.674.825c0 .014 0 .028.002.034.63.153.915.533.917 1.059a1.106 1.106 0 0 1-1.114 1.103"/><path fill="#555" d="M5.601 3.056 4.97 1.547h.413l.395 1.002.382-1.002h.394L5.94 3.056zm2.052-.762a.704.704 0 0 0-.022-.18.428.428 0 0 0-.066-.145.332.332 0 0 0-.106-.097.287.287 0 0 0-.147-.037.286.286 0 0 0-.147.037.328.328 0 0 0-.107.097.428.428 0 0 0-.065.146.704.704 0 0 0-.022.179.7.7 0 0 0 .022.18.472.472 0 0 0 .063.146.299.299 0 0 0 .255.135.29.29 0 0 0 .254-.135.45.45 0 0 0 .066-.145.7.7 0 0 0 .022-.181m.381.001a.956.956 0 0 1-.045.29.796.796 0 0 1-.135.255.663.663 0 0 1-.542.25.668.668 0 0 1-.543-.25.803.803 0 0 1-.135-.255.956.956 0 0 1 0-.577.788.788 0 0 1 .135-.252.66.66 0 0 1 .225-.178.707.707 0 0 1 .318-.068.677.677 0 0 1 .541.246c.06.074.106.158.136.252a.94.94 0 0 1 .045.287M9.2 1.88a.576.576 0 0 0-.209-.045.337.337 0 0 0-.29.14.465.465 0 0 0-.07.145.584.584 0 0 0-.023.165.78.78 0 0 0 .02.18.465.465 0 0 0 .063.15.331.331 0 0 0 .106.104c.042.026.093.04.15.04a.316.316 0 0 0 .147-.04.259.259 0 0 0 .106-.092zm.031 1.176-.015-.116a.48.48 0 0 1-.14.105.557.557 0 0 1-.48-.02.614.614 0 0 1-.2-.176.801.801 0 0 1-.124-.253 1.075 1.075 0 0 1-.042-.3c0-.099.014-.195.043-.289a.762.762 0 0 1 .133-.251.662.662 0 0 1 .538-.246c.08 0 .165.015.256.044V.969h.388v2.087zm1.449-.708a2.218 2.218 0 0 0-.255.032c-.084.017-.142.045-.175.086a.21.21 0 0 0-.048.133c0 .05.018.09.055.12a.24.24 0 0 0 .155.046c.05 0 .1-.01.147-.031a.435.435 0 0 0 .121-.079zm.031.706-.015-.112a.43.43 0 0 1-.16.109.565.565 0 0 1-.4.006.458.458 0 0 1-.313-.446.427.427 0 0 1 .163-.344.663.663 0 0 1 .173-.097 1.487 1.487 0 0 1 .369-.08l.15-.014v-.022c0-.083-.022-.142-.065-.178a.271.271 0 0 0-.178-.053.549.549 0 0 0-.316.102.589.589 0 0 0-.058.042l-.129-.272a.86.86 0 0 1 .202-.114.917.917 0 0 1 .593-.038.463.463 0 0 1 .296.281.717.717 0 0 1 .042.261v.97zm1.553-1.741a.506.506 0 0 0-.22-.044.194.194 0 0 0-.135.049c-.037.032-.055.085-.055.158v.071h.326v.313h-.323v1.196h-.388V1.86h-.2v-.313h.2v-.08c0-.099.013-.182.038-.25a.41.41 0 0 1 .263-.26.851.851 0 0 1 .538.033zm1.058.981a.721.721 0 0 0-.022-.18.428.428 0 0 0-.066-.145.332.332 0 0 0-.106-.097.287.287 0 0 0-.147-.037.286.286 0 0 0-.147.037.334.334 0 0 0-.107.097.443.443 0 0 0-.066.146.721.721 0 0 0 0 .36.482.482 0 0 0 .064.145.316.316 0 0 0 .107.1.301.301 0 0 0 .149.036.29.29 0 0 0 .253-.136.45.45 0 0 0 .066-.145.717.717 0 0 0 .022-.181m.381.001a.945.945 0 0 1-.045.29.788.788 0 0 1-.135.255.663.663 0 0 1-.542.25.668.668 0 0 1-.543-.25.803.803 0 0 1-.135-.255.944.944 0 0 1 0-.577.788.788 0 0 1 .134-.252.66.66 0 0 1 .226-.178.707.707 0 0 1 .318-.068.677.677 0 0 1 .541.246c.06.074.106.158.136.252a.94.94 0 0 1 .045.287m1.205.761v-.86a.431.431 0 0 0-.072-.267.24.24 0 0 0-.2-.094.311.311 0 0 0-.168.047.705.705 0 0 0-.133.104v1.07h-.388V1.547h.354l.018.12a.677.677 0 0 1 .435-.157c.08 0 .153.012.22.036a.43.43 0 0 1 .171.114c.049.052.086.12.112.203.026.084.039.184.039.3v.893zm1.595-.936a.397.397 0 0 0-.033-.136.288.288 0 0 0-.066-.094.263.263 0 0 0-.178-.07.297.297 0 0 0-.192.075.321.321 0 0 0-.107.225zm-.585.279c.008.127.048.219.12.275a.432.432 0 0 0 .275.085.759.759 0 0 0 .27-.05.74.74 0 0 0 .092-.044.304.304 0 0 0 .056-.041l.104.316a.729.729 0 0 1-.191.092 1.32 1.32 0 0 1-.382.058.84.84 0 0 1-.28-.047.626.626 0 0 1-.233-.145.711.711 0 0 1-.16-.246.929.929 0 0 1-.06-.35c0-.128.019-.24.055-.338a.664.664 0 0 1 .643-.454.74.74 0 0 1 .267.047c.081.031.151.08.21.145a.69.69 0 0 1 .141.256c.035.104.052.228.052.372v.069zm0 0"/></svg>