<svg width="30" height="30" viewBox="0 0 30 30" fill="none" xmlns="http://www.w3.org/2000/svg">
<path d="M15 15.9375C15 16.1861 14.9012 16.4246 14.7254 16.6004C14.5496 16.7762 14.3111 16.875 14.0625 16.875H8.4375C8.18886 16.875 7.9504 16.7762 7.77459 16.6004C7.59877 16.4246 7.5 16.1861 7.5 15.9375C7.5 15.6889 7.59877 15.4504 7.77459 15.2746C7.9504 15.0988 8.18886 15 8.4375 15H14.0625C14.3111 15 14.5496 15.0988 14.7254 15.2746C14.9012 15.4504 15 15.6889 15 15.9375ZM14.0625 11.25H8.4375C8.18886 11.25 7.9504 11.3488 7.77459 11.5246C7.59877 11.7004 7.5 11.9389 7.5 12.1875C7.5 12.4361 7.59877 12.6746 7.77459 12.8504C7.9504 13.0262 8.18886 13.125 8.4375 13.125H14.0625C14.3111 13.125 14.5496 13.0262 14.7254 12.8504C14.9012 12.6746 15 12.4361 15 12.1875C15 11.9389 14.9012 11.7004 14.7254 11.5246C14.5496 11.3488 14.3111 11.25 14.0625 11.25ZM27.1875 18.9223V26.25C27.189 26.4153 27.1468 26.578 27.0651 26.7217C26.9834 26.8654 26.8652 26.9849 26.7224 27.0682C26.5796 27.1515 26.4174 27.1956 26.2521 27.1959C26.0868 27.1963 25.9244 27.153 25.7813 27.0703L22.9688 25.4602L20.1563 27.0703C20.0131 27.153 19.8507 27.1963 19.6854 27.1959C19.5201 27.1956 19.3579 27.1515 19.2151 27.0682C19.0723 26.9849 18.9541 26.8654 18.8724 26.7217C18.7907 26.578 18.7485 26.4153 18.75 26.25V23.4375H4.6875C4.19022 23.4375 3.71331 23.24 3.36167 22.8883C3.01004 22.5367 2.8125 22.0598 2.8125 21.5625V6.5625C2.8125 6.06522 3.01004 5.58831 3.36167 5.23667C3.71331 4.88504 4.19022 4.6875 4.6875 4.6875H25.3125C25.8098 4.6875 26.2867 4.88504 26.6383 5.23667C26.99 5.58831 27.1875 6.06522 27.1875 6.5625V10.1402C27.7801 10.7078 28.2518 11.3894 28.5739 12.144C28.8961 12.8987 29.0622 13.7107 29.0622 14.5312C29.0622 15.3518 28.8961 16.1638 28.5739 16.9185C28.2518 17.6731 27.7801 18.3547 27.1875 18.9223ZM18.75 21.5625V18.9223C17.7284 17.937 17.0827 16.626 16.9244 15.2155C16.7662 13.805 17.1052 12.3836 17.8831 11.1964C18.6609 10.0092 19.8288 9.13073 21.1851 8.71264C22.5415 8.29454 24.0012 8.36302 25.3125 8.90625V6.5625H4.6875V21.5625H18.75ZM25.3125 20.1562C24.57 20.4664 23.7734 20.6262 22.9688 20.6262C22.1641 20.6262 21.3675 20.4664 20.625 20.1562V24.6352L22.5 23.5617C22.6417 23.4807 22.802 23.4381 22.9652 23.4381C23.1284 23.4381 23.2888 23.4807 23.4305 23.5617L25.3055 24.6352L25.3125 20.1562ZM27.1875 14.5312C27.1875 13.6969 26.9401 12.8812 26.4765 12.1874C26.013 11.4937 25.3541 10.9529 24.5832 10.6336C23.8123 10.3143 22.9641 10.2308 22.1457 10.3936C21.3274 10.5563 20.5756 10.9581 19.9856 11.5481C19.3956 12.1381 18.9938 12.8899 18.8311 13.7082C18.6683 14.5266 18.7518 15.3748 19.0711 16.1457C19.3904 16.9166 19.9312 17.5754 20.6249 18.039C21.3187 18.5026 22.1344 18.75 22.9688 18.75C23.5228 18.75 24.0714 18.6409 24.5832 18.4289C25.095 18.2169 25.5601 17.9061 25.9519 17.5144C26.3436 17.1226 26.6544 16.6575 26.8664 16.1457C27.0784 15.6339 27.1875 15.0853 27.1875 14.5312Z" fill="black"/>
</svg>
