<svg width="30" height="30" viewBox="0 0 30 30" fill="none" xmlns="http://www.w3.org/2000/svg">
<g clip-path="url(#clip0_1_32)">
<path d="M29.932 13.7109L28.2914 9.60938C28.1522 9.26235 27.912 8.96511 27.602 8.75617C27.2919 8.54723 26.9262 8.43621 26.5523 8.4375H22.5V7.5C22.5 7.25136 22.4012 7.0129 22.2254 6.83709C22.0496 6.66127 21.8111 6.5625 21.5625 6.5625H3.75C3.25272 6.5625 2.77581 6.76004 2.42417 7.11167C2.07254 7.46331 1.875 7.94022 1.875 8.4375V21.5625C1.875 22.0598 2.07254 22.5367 2.42417 22.8883C2.77581 23.24 3.25272 23.4375 3.75 23.4375H5.74219C5.94872 24.2441 6.41784 24.9591 7.0756 25.4697C7.73336 25.9802 8.54234 26.2574 9.375 26.2574C10.2077 26.2574 11.0166 25.9802 11.6744 25.4697C12.3322 24.9591 12.8013 24.2441 13.0078 23.4375H18.8672C19.0737 24.2441 19.5428 24.9591 20.2006 25.4697C20.8584 25.9802 21.6673 26.2574 22.5 26.2574C23.3327 26.2574 24.1416 25.9802 24.7994 25.4697C25.4572 24.9591 25.9263 24.2441 26.1328 23.4375H28.125C28.6223 23.4375 29.0992 23.24 29.4508 22.8883C29.8025 22.5367 30 22.0598 30 21.5625V14.0625C30.0003 13.942 29.9772 13.8226 29.932 13.7109ZM22.5 10.3125H26.5523L27.6773 13.125H22.5V10.3125ZM3.75 8.4375H20.625V15.9375H3.75V8.4375ZM9.375 24.375C9.00416 24.375 8.64165 24.265 8.33331 24.059C8.02496 23.853 7.78464 23.5601 7.64273 23.2175C7.50081 22.8749 7.46368 22.4979 7.53603 22.1342C7.60837 21.7705 7.78695 21.4364 8.04918 21.1742C8.3114 20.912 8.64549 20.7334 9.00921 20.661C9.37292 20.5887 9.74992 20.6258 10.0925 20.7677C10.4351 20.9096 10.728 21.15 10.934 21.4583C11.14 21.7666 11.25 22.1292 11.25 22.5C11.25 22.9973 11.0525 23.4742 10.7008 23.8258C10.3492 24.1775 9.87228 24.375 9.375 24.375ZM18.8672 21.5625H13.0078C12.8013 20.7559 12.3322 20.0409 11.6744 19.5303C11.0166 19.0198 10.2077 18.7426 9.375 18.7426C8.54234 18.7426 7.73336 19.0198 7.0756 19.5303C6.41784 20.0409 5.94872 20.7559 5.74219 21.5625H3.75V17.8125H20.625V19.2551C20.1939 19.5043 19.8166 19.8365 19.5148 20.2326C19.2131 20.6287 18.9929 21.0807 18.8672 21.5625ZM22.5 24.375C22.1292 24.375 21.7666 24.265 21.4583 24.059C21.15 23.853 20.9096 23.5601 20.7677 23.2175C20.6258 22.8749 20.5887 22.4979 20.661 22.1342C20.7334 21.7705 20.912 21.4364 21.1742 21.1742C21.4364 20.912 21.7705 20.7334 22.1342 20.661C22.4979 20.5887 22.8749 20.6258 23.2175 20.7677C23.5601 20.9096 23.853 21.15 24.059 21.4583C24.265 21.7666 24.375 22.1292 24.375 22.5C24.375 22.9973 24.1775 23.4742 23.8258 23.8258C23.4742 24.1775 22.9973 24.375 22.5 24.375ZM28.125 21.5625H26.1328C25.9238 20.7578 25.4538 20.0452 24.7964 19.5363C24.139 19.0273 23.3314 18.7508 22.5 18.75V15H28.125V21.5625Z" fill="black"/>
</g>
<defs>
<clipPath id="clip0_1_32">
<rect width="30" height="30" fill="white"/>
</clipPath>
</defs>
</svg>
