<svg width="101" height="14" viewBox="0 0 101 14" fill="none" xmlns="http://www.w3.org/2000/svg">
<g clip-path="url(#clip0_5703_42281)">
<path d="M36.1745 3.70508H33.6104L36.7086 13.285H39.4687L42.567 3.70508H40.0029L38.0627 10.9213L36.1745 3.70508Z" fill="#5B5B5B"/>
<path d="M0.402344 0.5H3.05551V13.2851H0.402344V0.5Z" fill="#5B5B5B"/>
<path d="M5.67285 0.5H8.32601V13.2851H5.67285V0.5Z" fill="#5B5B5B"/>
<path d="M10.9434 0.5H18.7959V2.63086H13.5965V5.67492H18.4399V7.80578H13.5965V11.1543H18.7959V13.2851H10.9434V0.5Z" fill="#5B5B5B"/>
<path d="M20.416 0.5H22.9267V13.2851H20.416V0.5Z" fill="#5B5B5B"/>
<path d="M24.4404 8.48611C24.4404 4.99436 26.1677 3.49023 28.8564 3.49023C31.5452 3.49023 33.0766 4.97645 33.0766 8.52191V9.09491H26.9155C27.0046 11.172 27.6277 11.8704 28.8208 11.8704C29.7645 11.8704 30.3521 11.3153 30.459 10.3484H32.9697C32.8094 12.4613 31.0645 13.4999 28.8208 13.4999C25.9718 13.4999 24.4404 11.9778 24.4404 8.48611ZM30.6015 7.42962C30.4769 5.6748 29.8714 5.1018 28.8208 5.1018C27.7703 5.1018 27.1113 5.69271 26.9334 7.42962H30.6015Z" fill="#5B5B5B"/>
<path d="M43.0479 8.48611C43.0479 4.99436 44.7751 3.49023 47.4638 3.49023C50.1526 3.49023 51.684 4.97645 51.684 8.52191V9.09491H45.5229C45.612 11.172 46.2352 11.8704 47.4283 11.8704C48.3719 11.8704 48.9595 11.3153 49.0664 10.3484H51.5771C51.4169 12.4613 49.6718 13.4999 47.4283 13.4999C44.5791 13.4999 43.0479 11.9778 43.0479 8.48611ZM49.2088 7.42962C49.0842 5.6748 48.4788 5.1018 47.4283 5.1018C46.3777 5.1018 45.7187 5.69271 45.5408 7.42962H49.2088Z" fill="#5B5B5B"/>
<path d="M63.5781 0.5H66.2313V11.1543H71.217V13.2851H63.5781V0.5Z" fill="#5B5B5B"/>
<path fill-rule="evenodd" clip-rule="evenodd" d="M71.8408 8.48611C71.8408 4.83321 73.5146 3.49023 75.6692 3.49023C76.7375 3.49023 77.7169 4.09905 78.1087 4.74368V3.70511H80.6728V13.285H78.1799V12.1569C77.806 12.909 76.7554 13.4999 75.5979 13.4999C73.3188 13.4999 71.8408 12.0316 71.8408 8.48611ZM76.328 5.3704C77.5744 5.3704 78.2511 6.31944 78.2511 8.48611C78.2511 10.6528 77.5744 11.6197 76.328 11.6197C75.0816 11.6197 74.3694 10.6528 74.3694 8.48611C74.3694 6.31944 75.0816 5.3704 76.328 5.3704Z" fill="#5B5B5B"/>
<path fill-rule="evenodd" clip-rule="evenodd" d="M85.1061 12.157V13.2851H82.6133V0.5H85.1239V4.74381C85.5513 4.08127 86.5484 3.49036 87.6169 3.49036C89.718 3.49036 91.3918 4.83333 91.3918 8.48623C91.3918 12.1391 89.7536 13.5 87.5634 13.5C86.4061 13.5 85.4623 12.9091 85.1061 12.157ZM86.9046 5.38843C88.151 5.38843 88.8633 6.31957 88.8633 8.48623C88.8633 10.6529 88.151 11.6198 86.9046 11.6198C85.6581 11.6198 84.9814 10.6529 84.9814 8.48623C84.9814 6.31957 85.6581 5.38843 86.9046 5.38843Z" fill="#5B5B5B"/>
<path d="M92.4248 10.4379H94.9355C94.9711 11.4406 95.5052 11.9241 96.449 11.9241C97.3927 11.9241 97.927 11.4944 97.927 10.7423C97.927 10.0619 97.5175 9.81117 96.6271 9.59629L95.8614 9.39933C93.6891 8.84423 92.6028 8.25332 92.6028 6.44477C92.6028 4.63624 94.2767 3.49023 96.4134 3.49023C98.5502 3.49023 100.171 4.33183 100.242 6.31944H97.731C97.6777 5.44203 97.1434 5.06599 96.3778 5.06599C95.6121 5.06599 95.0778 5.44203 95.0778 6.15828C95.0778 6.82081 95.5052 7.0715 96.2532 7.25056L97.0366 7.44754C99.1022 7.96681 100.402 8.4861 100.402 10.42C100.402 12.3539 98.6927 13.4999 96.3778 13.4999C93.867 13.4999 92.4781 12.5508 92.4248 10.4379Z" fill="#5B5B5B"/>
<path d="M55.7445 7.6445C55.7445 6.14037 56.4567 5.31668 57.5608 5.31668C58.4688 5.31668 58.9853 5.88967 58.9853 7.12522V13.285H61.4959V6.73128C61.4959 4.51089 60.2495 3.49023 58.4333 3.49023C57.2046 3.49023 56.1897 4.11695 55.7445 4.94064V3.70511H53.1982V13.285H55.7445V7.6445Z" fill="#5B5B5B"/>
</g>
<defs>
<clipPath id="clip0_5703_42281">
<rect width="100" height="13" fill="white" transform="translate(0.402344 0.5)"/>
</clipPath>
</defs>
</svg>
