<svg width="61" height="22" viewBox="0 0 61 22" fill="none" xmlns="http://www.w3.org/2000/svg">
<g clip-path="url(#clip0_5703_46326)">
<path d="M23.3819 0.780645V21.172H20.7359V0.780645H23.3819ZM24.1685 0H19.9492V21.9763H24.1685V0Z" fill="#5B5B5B"/>
<path d="M58.5428 6.83631L54.0136 13.3417L53.7037 13.7911L54.0136 14.2406L58.9004 21.1718H56.1114L52.7025 16.1567L52.0589 15.1868L51.3914 16.1567L47.935 21.1718H45.1698L49.985 14.2406L50.2949 13.7911L49.985 13.3417L45.4797 6.83631H48.2687L51.3676 11.4019L52.0351 12.3718L52.7025 11.4019L55.7538 6.83631H58.5428ZM60.0446 6.05566H55.3247L52.0351 10.9524L48.7216 6.05566H44.0017L49.3414 13.7911L43.668 21.9524H48.364L52.0589 16.5825L55.7061 21.9761H60.426L54.6811 13.8148L60.0446 6.05566Z" fill="#5B5B5B"/>
<path d="M17.2557 4.02151V0H1.5704V4.51828V5.34624L2.40473 6.17419L0.402344 8.16129L2.40473 10.1484L0.402344 12.1118L2.40473 14.0989L0.402344 16.0624L1.5704 17.2215V17.8602V21.9763H6.29031V12.8215H17.0174V8.8H6.29031V4.02151H17.2557ZM6.29031 9.58065H16.2307V12.0409H6.29031H5.50365V12.8215V21.1957H2.35705V17.8366V16.8667L1.52273 16.0387L3.52511 14.0516L1.52273 12.0645L3.52511 10.0774L1.52273 8.09032L3.52511 6.10323L2.35705 4.94409V4.44731V0.780645H16.4453V3.24086H6.29031H5.50365V4.02151V8.8V9.58065H6.29031Z" fill="#5B5B5B"/>
<path d="M41.2844 6.81287V14.1225C41.2844 18.972 39.139 21.243 34.5621 21.243C29.9852 21.243 27.8159 18.972 27.8159 14.1225V6.81287H30.462V14.1225C30.462 18.5935 33.0364 19.2795 34.5621 19.2795C36.0877 19.2795 38.6622 18.6172 38.6622 14.1225V6.81287H41.2844ZM42.0949 6.03223H37.8755V14.1225C37.8755 16.4881 37.0889 18.4989 34.5621 18.4989C32.0353 18.4989 31.2486 16.4881 31.2486 14.1225V6.03223H27.0293V14.1225C27.0293 19.3742 29.4608 22 34.5621 22C39.6634 22 42.0949 19.3742 42.0949 14.1225V6.03223Z" fill="#5B5B5B"/>
</g>
<defs>
<clipPath id="clip0_5703_46326">
<rect width="60" height="22" fill="white" transform="translate(0.402344)"/>
</clipPath>
</defs>
</svg>
