<svg width="87" height="26" viewBox="0 0 87 26" fill="none" xmlns="http://www.w3.org/2000/svg">
<g clip-path="url(#clip0_5703_42265)">
<path d="M22.1701 9.24429H11.1054V12.0345H18.8637C17.935 15.1422 14.8136 17.4276 11.1054 17.4276C6.66499 17.4276 3.06525 14.1509 3.06525 10.109C3.06525 6.06706 6.66499 2.79036 11.1054 2.79036C13.2044 2.79036 15.1153 3.52293 16.5471 4.72215L18.716 2.74794C16.7284 1.04415 14.0511 0 11.1056 0C4.97211 0 0 4.52592 0 10.109C0 15.6921 4.97211 20.218 11.1056 20.218C17.2391 20.218 22.2112 15.6921 22.2112 10.109C22.2112 9.81763 22.1969 9.52933 22.1703 9.24429H22.1701Z" fill="#5B5B5B"/>
<path d="M30.4759 7.1543C26.5537 7.1543 23.374 10.0676 23.374 13.6611C23.374 17.2546 26.5537 20.1679 30.4759 20.1679C34.3981 20.1679 37.5778 17.2546 37.5778 13.6611C37.5778 10.0676 34.3981 7.1543 30.4759 7.1543ZM30.4759 17.5839C28.3293 17.5839 26.589 15.8738 26.589 13.7642C26.589 11.6546 28.3293 9.94448 30.4759 9.94448C32.6225 9.94448 34.3628 11.6546 34.3628 13.7642C34.3628 15.8738 32.6225 17.5839 30.4759 17.5839Z" fill="#5B5B5B"/>
<path d="M45.8421 7.1543C41.9199 7.1543 38.7402 10.0676 38.7402 13.6611C38.7402 17.2546 41.9199 20.1679 45.8421 20.1679C49.7643 20.1679 52.944 17.2546 52.944 13.6611C52.944 10.0676 49.7643 7.1543 45.8421 7.1543ZM45.8421 17.5839C43.6955 17.5839 41.9552 15.8738 41.9552 13.7642C41.9552 11.6546 43.6955 9.94448 45.8421 9.94448C47.9888 9.94448 49.729 11.6546 49.729 13.7642C49.729 15.8738 47.9888 17.5839 45.8421 17.5839Z" fill="#5B5B5B"/>
<path d="M71.4842 0H68.4189V20.4254H71.4842V0Z" fill="#5B5B5B"/>
<path d="M83.653 15.3308C83.1921 16.191 82.3989 16.8571 81.4195 17.2062C80.3792 17.5772 79.2426 17.557 78.2186 17.1496C77.567 16.8901 77.0107 16.4937 76.5872 15.9955L87.0001 12.2833L86.8391 11.79C86.7796 11.6075 86.712 11.428 86.6382 11.2567C85.9327 9.617 84.5679 8.32535 82.7953 7.62005C81.0227 6.91456 79.0544 6.8799 77.253 7.52202C75.4517 8.16415 74.0327 9.40651 73.2578 11.02C72.4828 12.6336 72.4447 14.4253 73.1501 16.065C73.8556 17.7047 75.2204 18.9963 76.993 19.7016C77.9229 20.0717 78.9068 20.2573 79.8923 20.2573C80.7851 20.2573 81.679 20.1049 82.5353 19.7997C84.2601 19.1848 85.6466 18.007 86.4393 16.4834L86.7106 15.9617L83.9117 14.8479L83.653 15.3308ZM82.691 10.8283L75.7271 13.3109C75.7682 12.9107 75.8798 12.5148 76.0617 12.1359C76.5093 11.204 77.3286 10.4866 78.369 10.1156C78.8644 9.93906 79.3796 9.85421 79.8899 9.85421C80.9148 9.85421 81.9181 10.197 82.6908 10.8283H82.691Z" fill="#5B5B5B"/>
<path d="M64.1911 7.1543V8.30081C63.1541 7.57781 61.8973 7.1543 60.5424 7.1543C56.9879 7.1543 54.1064 10.0676 54.1064 13.6611C54.1064 17.2546 56.9879 20.1679 60.5424 20.1679C61.8973 20.1679 63.1541 19.7442 64.1911 19.0214V20.4257C64.1911 21.2289 63.5551 23.4616 60.6631 23.4616C57.7712 23.4616 56.9569 21.1083 56.9569 21.1083L54.1782 22.2866C54.1782 22.2866 55.2232 26.0003 60.9384 26.0003C64.0342 26.0003 65.6299 24.3648 66.4424 22.8655C66.993 21.8495 67.2565 20.7245 67.2565 19.5917V7.1543H64.1911ZM60.5424 17.5839C58.597 17.5839 57.02 15.8738 57.02 13.7642C57.02 11.6546 58.597 9.94448 60.5424 9.94448C62.4877 9.94448 64.0648 11.6546 64.0648 13.7642C64.0648 15.8738 62.4877 17.5839 60.5424 17.5839Z" fill="#5B5B5B"/>
</g>
<defs>
<clipPath id="clip0_5703_42265">
<rect width="87" height="26" fill="white"/>
</clipPath>
</defs>
</svg>
