<svg width="70" height="22" viewBox="0 0 70 22" fill="none" xmlns="http://www.w3.org/2000/svg">
<path fill-rule="evenodd" clip-rule="evenodd" d="M64.8652 8.09191C64.4003 5.99824 63.6439 5.26583 61.6515 5.03849C61.0914 4.96807 60.5261 4.95517 59.9636 4.99999C57.314 5.22824 56.4558 6.22649 56.4558 9.02599C56.4558 10.4652 56.4446 11.9043 56.4601 13.3435C56.48 15.2465 57.2959 16.5518 59.0442 16.8864C60.2189 17.1101 61.5273 17.0468 62.6839 16.7324C64.17 16.3318 64.8298 14.9486 64.6737 13.1913H60.7183V10.5165H67.6942C67.6942 10.9996 67.7089 11.4772 67.7244 11.9511C67.7572 12.9869 67.7891 14.0017 67.6597 14.9917C67.3147 17.6738 65.2111 19.7097 62.2363 20.0847C60.7476 20.2717 59.1348 20.1323 57.6823 19.7198C54.9827 18.9507 53.4957 16.6105 53.4785 13.6405C53.4673 11.9217 53.4759 10.203 53.4785 8.48333C53.4802 4.78091 54.9102 2.84858 58.3369 2.11891C60.6683 1.62208 62.9927 1.69816 65.1438 2.94666C67.0025 4.02741 67.8382 5.74616 67.7615 8.08733H64.8704L64.8652 8.09191ZM50.1553 19.9352H47.4306V5.16774H39.4974V19.9022H36.7029V2.47183H50.1553V19.9352ZM26.973 17.2778H19.8962V2.30316H17.1966V19.8665H26.973V17.2778ZM32.2075 19.9233H29.6002V2.30133H32.2075V19.9233ZM2.12695 19.9233H4.73343V11.5661H4.76965L11.7732 19.8674H15.0049L8.00144 11.5661H7.89363L14.8971 2.40583H11.6645L4.73343 11.4717V2.30133H2.12695V19.9233Z" fill="#5B5B5B"/>
</svg>
