<svg width="115" height="24" viewBox="0 0 115 24" fill="none" xmlns="http://www.w3.org/2000/svg">
<path fill-rule="evenodd" clip-rule="evenodd" d="M2.79895 22V2H7.02895L11.439 8.828L15.729 2H19.7169V22L15.7299 21.94V9.25L12.467 13.964H10.4729L7.02895 9.25V22H2.79895ZM27.27 2H23.403V22H27.27V2ZM30.8349 2H34.8839L42.3759 14.387V2H46.3639V22H42.3759L34.8839 9.734V21.94H30.8349V2ZM53.917 2H49.8079V22H53.917V2ZM57.421 2V22H61.651V9.25L65.0949 13.964H67.089L70.352 9.251V21.94L74.34 22V2H70.352L66.062 8.828L61.651 2H57.421ZM76.878 22L83.2219 2H88.298L94.702 22H90.2309L89.341 18.979H82.202L81.2889 22H76.878ZM83.2469 15.595H88.325L85.82 7.257L83.2469 15.595ZM112.769 2H107.995L104.376 8.082L100.684 2H96.0919L102.053 11.985L96.0929 22H100.684L104.382 15.887L107.995 21.94H112.769L106.744 11.984L112.769 2Z" fill="#5B5B5B"/>
</svg>
