<svg width="100" height="20" viewBox="0 0 100 20" fill="none" xmlns="http://www.w3.org/2000/svg">
<g opacity="0.8" clip-path="url(#clip0_5703_42257)">
<path d="M27.2725 4.53604H30.0358L30.2948 6.0101C30.5693 5.46209 30.9921 5.00677 31.5124 4.69859C32.0327 4.39042 32.6286 4.24243 33.2288 4.27234C33.7841 4.27696 34.3336 4.38918 34.8482 4.60307L34.1993 8.01186C33.7089 7.71622 33.1489 7.56373 32.58 7.5709C31.4587 7.5709 30.5509 8.3426 30.5509 10.0571V15.5341H27.2725V4.53604Z" fill="#5B5B5B"/>
<path d="M35.9844 11.4383V4.46582H39.3113V10.8001C39.2803 11.0527 39.3036 11.3092 39.3797 11.5516C39.4557 11.794 39.5827 12.0163 39.7516 12.2029C39.9205 12.3895 40.1272 12.536 40.3573 12.6318C40.5873 12.7277 40.8351 12.7708 41.0831 12.7579C42.1564 12.7579 43.0741 11.9226 43.0741 10.0751V4.46582H46.401V15.464H43.6223L43.2501 14.0137C42.8527 14.5655 42.3304 15.0099 41.7282 15.3086C41.1259 15.6072 40.4619 15.7511 39.7933 15.7279C37.6233 15.7279 35.9844 14.3181 35.9844 11.4383Z" fill="#5B5B5B"/>
<path d="M48.1084 4.53574H50.8533L51.221 5.98595C51.6057 5.43605 52.1168 4.99192 52.709 4.69292C53.3011 4.39392 53.9561 4.24928 54.6158 4.27181C56.7337 4.27181 58.3328 5.65817 58.3328 8.53845V15.5339H55.0463V9.24304C55.0463 7.94675 54.396 7.24179 53.316 7.24179C52.3213 7.24179 51.392 8.07704 51.392 9.96807V15.5339H48.1055V4.53574H48.1084Z" fill="#5B5B5B"/>
<path d="M59.0908 4.46582H62.3782L64.3199 11.97L66.0479 7.03439L65.1954 4.46589H68.4601L70.5735 11.97L72.4503 4.46582H75.7572L72.2567 15.5337H68.8848L67.4354 11.1293L65.941 15.5337H62.5891L59.0908 4.46582Z" fill="#5B5B5B"/>
<path d="M75.9473 9.99952C75.9473 6.21733 78.609 4.27142 81.059 4.27142C81.6341 4.24316 82.2086 4.33946 82.745 4.55402C83.2814 4.76859 83.7677 5.09662 84.1722 5.51674L84.4721 4.53371H87.5001V15.4654H84.6223L84.1722 14.3959C83.7601 14.8546 83.2526 15.2125 82.6873 15.443C82.122 15.6735 81.5134 15.7708 80.9065 15.7277C78.2665 15.7277 75.9473 13.4965 75.9473 9.99952ZM84.3023 9.99952C84.3365 9.63712 84.2964 9.27139 84.1846 8.92581C84.0728 8.58023 83.8917 8.26245 83.653 7.99288C83.4142 7.7233 83.1232 7.5079 82.7985 7.36049C82.4737 7.21308 82.1225 7.13693 81.7674 7.13693C81.4122 7.13693 81.061 7.21308 80.7363 7.36049C80.4116 7.5079 80.1205 7.7233 79.8818 7.99288C79.6431 8.26245 79.462 8.58023 79.3502 8.92581C79.2384 9.27139 79.1983 9.63712 79.2325 9.99952C79.1978 10.3622 79.2376 10.7283 79.3492 11.0742C79.4608 11.4202 79.6418 11.7384 79.8806 12.0083C80.1193 12.2782 80.4106 12.494 80.7355 12.6416C81.0605 12.7892 81.412 12.8655 81.7674 12.8655C82.1228 12.8655 82.4743 12.7892 82.7992 12.6416C83.1242 12.494 83.4154 12.2782 83.6542 12.0083C83.8929 11.7384 84.0739 11.4202 84.1856 11.0742C84.2972 10.7283 84.3369 10.3622 84.3023 9.99952Z" fill="#5B5B5B"/>
<path d="M90.9389 19.9997L92.7596 14.9631L88.4463 4.46582H91.9793L94.386 11.3226L96.5528 4.46582H99.9998L94.3 19.9997H90.9389Z" fill="#5B5B5B"/>
<path d="M14.9548 19.9876C12.5915 20.2092 10.6154 17.3697 9.10049 15.9296C8.33449 21.5881 -0.00570483 21.0517 2.92829e-06 15.3116C0.00282068 12.9007 2.92829e-06 7.00907 2.92829e-06 4.67405C-0.000589494 4.0594 0.117209 3.45067 0.34664 2.88281C0.57607 2.31494 0.912616 1.79912 1.33697 1.36492C1.76132 0.930732 2.26512 0.586723 2.81946 0.352636C3.3738 0.118549 3.96778 -0.00100753 4.5673 0.000826185C6.93927 0.00378913 12.6513 -0.00206268 14.9548 0.000826185C20.5587 0.000826185 21.0911 8.54832 15.5529 9.31787L18.181 12.0087C21.0681 14.7925 18.9014 20.1101 14.9548 19.9876ZM13.6821 16.6206C15.3108 18.3405 17.9105 15.676 16.2334 14.0085L11.6774 9.34416H9.12895V11.9561L13.067 15.988L13.6821 16.6206ZM2.75916 15.3145C2.72217 17.705 6.40397 17.7137 6.3669 15.3145V4.67405C6.36424 4.38794 6.29725 4.1063 6.17114 3.85105C6.04504 3.5958 5.86322 3.3738 5.63981 3.20231C5.4164 3.03083 5.15743 2.91447 4.88302 2.8623C4.60862 2.81012 4.32617 2.82352 4.05764 2.90147C4.00924 2.91629 3.96372 2.93066 3.92095 2.94814C3.57516 3.085 3.27851 3.32706 3.07083 3.64182C2.86315 3.95658 2.75439 4.32896 2.75916 4.70894V15.3145ZM14.955 6.5193C17.2959 6.55722 17.2928 2.78784 14.955 2.82569H8.76749C9.23711 3.8405 9.11776 5.42027 9.12628 6.5193H14.955Z" fill="#5B5B5B"/>
</g>
<defs>
<clipPath id="clip0_5703_42257">
<rect width="100" height="20" fill="white"/>
</clipPath>
</defs>
</svg>
